ffmpeg version 6.1.1-3ubuntu5 Copyright (c) 2000-2023 the FFmpeg developers
  built with gcc 13 (Ubuntu 13.2.0-23ubuntu3)
  configuration: --prefix=/usr --extra-version=3ubuntu5 --toolchain=hardened --libdir=/usr/lib/x86_64-linux-gnu --incdir=/usr/include/x86_64-linux-gnu --arch=amd64 --enable-gpl --disable-stripping --disable-omx --enable-gnutls --enable-libaom --enable-libass --enable-libbs2b --enable-libcaca --enable-libcdio --enable-libcodec2 --enable-libdav1d --enable-libflite --enable-libfontconfig --enable-libfreetype --enable-libfribidi --enable-libglslang --enable-libgme --enable-libgsm --enable-libharfbuzz --enable-libmp3lame --enable-libmysofa --enable-libopenjpeg --enable-libopenmpt --enable-libopus --enable-librubberband --enable-libshine --enable-libsnappy --enable-libsoxr --enable-libspeex --enable-libtheora --enable-libtwolame --enable-libvidstab --enable-libvorbis --enable-libvpx --enable-libwebp --enable-libx265 --enable-libxml2 --enable-libxvid --enable-libzimg --enable-openal --enable-opencl --enable-opengl --disable-sndio --enable-libvpl --disable-libmfx --enable-libdc1394 --enable-libdrm --enable-libiec61883 --enable-chromaprint --enable-frei0r --enable-ladspa --enable-libbluray --enable-libjack --enable-libpulse --enable-librabbitmq --enable-librist --enable-libsrt --enable-libssh --enable-libsvtav1 --enable-libx264 --enable-libzmq --enable-libzvbi --enable-lv2 --enable-sdl2 --enable-libplacebo --enable-librav1e --enable-pocketsphinx --enable-librsvg --enable-libjxl --enable-shared
  libavutil      58. 29.100 / 58. 29.100
  libavcodec     60. 31.102 / 60. 31.102
  libavformat    60. 16.100 / 60. 16.100
  libavdevice    60.  3.100 / 60.  3.100
  libavfilter     9. 12.100 /  9. 12.100
  libswscale      7.  5.100 /  7.  5.100
  libswresample   4. 12.100 /  4. 12.100
  libpostproc    57.  3.100 / 57.  3.100
[x11grab @ 0x5640fcb83080] Stream #0: not enough frames to estimate rate; consider increasing probesize
Input #0, x11grab, from ':0.0':
  Duration: N/A, start: 1766289811.769119, bitrate: 1448067 kb/s
  Stream #0:0: Video: rawvideo (BGR[0] / 0x524742), bgr0, 1718x878, 1448067 kb/s, 30 fps, 1000k tbr, 1000k tbn
Stream mapping:
  Stream #0:0 -> #0:0 (rawvideo (native) -> h264 (libx264))
Press [q] to stop, [?] for help
[libx264 @ 0x5640fcb8cf00] frame MB size (108x55) > level limit (1620)
[libx264 @ 0x5640fcb8cf00] MB rate (178200) > level limit (40500)
[libx264 @ 0x5640fcb8cf00] using cpu capabilities: MMX2 SSE2Fast SSSE3 SSE4.2 AVX FMA3 BMI2 AVX2
[libx264 @ 0x5640fcb8cf00] profile Constrained Baseline, level 3.0, 4:2:0, 8-bit
Output #0, h264, to 'pipe:':
  Metadata:
    encoder         : Lavf60.16.100
  Stream #0:0: Video: h264, yuv420p(tv, progressive), 1718x878, q=2-31, 30 fps, 30 tbn
    Metadata:
      encoder         : Lavc60.31.102 libx264
    Side data:
      cpb: bitrate max/min/avg: 0/0/0 buffer size: 0 vbv_delay: N/A
frame=    0 fps=0.0 q=20.0 size=       0kB time=00:00:00.00 bitrate=N/A speed=   0x    frame=   20 fps=0.0 q=13.0 size=      37kB time=00:00:00.66 bitrate= 449.1kbits/s dup=3 drop=1 speed=1.32x    frame=   36 fps= 35 q=13.0 size=      83kB time=00:00:01.20 bitrate= 568.3kbits/s dup=3 drop=1 speed=1.15x    frame=   51 fps= 33 q=13.0 size=      87kB time=00:00:01.70 bitrate= 418.9kbits/s dup=3 drop=1 speed= 1.1x    frame=   67 fps= 32 q=13.0 size=     132kB time=00:00:02.23 bitrate= 484.7kbits/s dup=3 drop=1 speed=1.08x    frame=   83 fps= 32 q=13.0 size=     137kB time=00:00:02.76 bitrate= 405.6kbits/s dup=3 drop=1 speed=1.06x    frame=   98 fps= 32 q=13.0 size=     182kB time=00:00:03.26 bitrate= 457.2kbits/s dup=3 drop=1 speed=1.05x    frame=  114 fps= 31 q=13.0 size=     185kB time=00:00:03.80 bitrate= 399.7kbits/s dup=3 drop=1 speed=1.04x    frame=  129 fps= 31 q=13.0 size=     231kB time=00:00:04.30 bitrate= 440.9kbits/s dup=3 drop=1 speed=1.04x    frame=  144 fps= 31 q=13.0 size=     235kB time=00:00:04.80 bitrate= 401.5kbits/s dup=3 drop=1 speed=1.03x    frame=  160 fps= 31 q=13.0 size=     282kB time=00:00:05.33 bitrate= 433.7kbits/s dup=3 drop=1 speed=1.03x    frame=  175 fps= 31 q=13.0 size=     288kB time=00:00:05.83 bitrate= 405.1kbits/s dup=3 drop=1 speed=1.03x    frame=  191 fps= 31 q=13.0 size=     337kB time=00:00:06.36 bitrate= 433.0kbits/s dup=3 drop=1 speed=1.03x    frame=  222 fps= 30 q=13.0 size=     529kB time=00:00:07.40 bitrate= 585.9kbits/s dup=20 drop=1 speed=1.01x    frame=  241 fps= 31 q=21.0 size=     638kB time=00:00:08.03 bitrate= 650.3kbits/s dup=22 drop=20 speed=1.02x    frame=  256 fps= 31 q=13.0 size=     728kB time=00:00:08.53 bitrate= 698.8kbits/s dup=22 drop=20 speed=1.02x    frame=  273 fps= 31 q=19.0 size=     820kB time=00:00:09.06 bitrate= 740.7kbits/s dup=22 drop=20 speed=1.02x    frame=  288 fps= 31 q=13.0 size=     821kB time=00:00:09.60 bitrate= 700.3kbits/s dup=22 drop=20 speed=1.02x    frame=  303 fps= 30 q=17.0 size=     912kB time=00:00:10.10 bitrate= 740.0kbits/s dup=22 drop=20 speed=1.02x    frame=  318 fps= 30 q=13.0 size=     913kB time=00:00:10.60 bitrate= 705.7kbits/s dup=22 drop=20 speed=1.01x    frame=  334 fps= 30 q=16.0 size=    1005kB time=00:00:11.13 bitrate= 739.4kbits/s dup=22 drop=20 speed=1.01x    frame=  349 fps= 30 q=13.0 size=    1006kB time=00:00:11.63 bitrate= 708.2kbits/s dup=22 drop=20 speed=1.01x    frame=  365 fps= 30 q=15.0 size=    1097kB time=00:00:12.16 bitrate= 738.9kbits/s dup=22 drop=20 speed=1.01x    frame=  380 fps= 30 q=13.0 size=    1098kB time=00:00:12.66 bitrate= 710.4kbits/s dup=22 drop=20 speed=1.01x    frame=  396 fps= 30 q=14.0 size=    1190kB time=00:00:13.20 bitrate= 738.5kbits/s dup=22 drop=20 speed=1.01x    frame=  411 fps= 30 q=13.0 size=    1191kB time=00:00:13.70 bitrate= 712.1kbits/s dup=22 drop=20 speed=1.01x    [vost#0:0/libx264 @ 0x5640fcb8cb40] Error submitting a packet to the muxer: Broken pipe
[out#0/h264 @ 0x5640fcb8b780] Error muxing a packet
[out#0/h264 @ 0x5640fcb8b780] Error writing trailer: Broken pipe
[out#0/h264 @ 0x5640fcb8b780] Error closing file: Broken pipe
[out#0/h264 @ 0x5640fcb8b780] video:1282kB audio:0kB subtitle:0kB other streams:0kB global headers:0kB muxing overhead: unknown
frame=  421 fps= 30 q=21.0 Lsize=    1255kB time=00:00:14.03 bitrate= 732.8kbits/s dup=22 drop=20 speed=1.01x    
[libx264 @ 0x5640fcb8cf00] frame I:15    Avg QP:11.33  size: 67369
[libx264 @ 0x5640fcb8cf00] frame P:407   Avg QP:13.82  size:   744
[libx264 @ 0x5640fcb8cf00] mb I  I16..4: 100.0%  0.0%  0.0%
[libx264 @ 0x5640fcb8cf00] mb P  I16..4:  0.7%  0.0%  0.0%  P16..4:  0.6%  0.0%  0.0%  0.0%  0.0%    skip:98.7%
[libx264 @ 0x5640fcb8cf00] coded y,uvDC,uvAC intra: 15.8% 30.0% 16.4% inter: 0.2% 0.3% 0.2%
[libx264 @ 0x5640fcb8cf00] i16 v,h,dc,p: 69% 15% 10%  6%
[libx264 @ 0x5640fcb8cf00] i8c dc,h,v,p: 77% 13%  8%  2%
[libx264 @ 0x5640fcb8cf00] kb/s:746.83
Conversion failed!
